<?xml version="1.0" encoding="utf-8"?>
<svg stroke="#cfd2da" fill="#cfd2da" version="1.1" x="0px" y="0px" viewBox="0 0 1000 1000" enable-background="new 0 0 1000 1000" xmlns="http://www.w3.org/2000/svg">
  <g transform="matrix(1, 0, 0, 1, 0, 20.891365)">
    <path d="M 989.893 237.56 C 987.393 232.56 982.293 229.46 976.493 229.46 C 975.793 229.46 975.193 229.46 974.593 229.56 L 936.793 231.16 L 967.893 201.66 L 968.593 201.26 L 976.893 191.46 L 972.493 182.76 C 969.993 177.76 964.793 174.66 959.193 174.66 C 957.793 174.66 956.493 174.86 955.493 175.06 L 853.493 193.66 C 851.593 191.26 849.793 188.86 847.793 186.56 C 811.893 143.66 763.493 121.06 707.893 121.06 C 693.993 121.06 679.493 122.46 664.693 125.26 C 561.193 144.96 510.693 223.26 457.193 306.16 C 385.693 416.96 311.793 531.46 99.793 531.46 C 81.593 531.46 62.493 530.56 42.793 528.86 C 40.793 528.66 38.893 528.56 37.193 528.56 C 26.193 528.56 18.393 532.16 14.293 539.26 C 7.993 549.96 14.093 561.16 17.093 566.56 L 17.493 567.26 C 57.393 640.86 117.693 704.06 192.093 749.86 C 258.593 790.96 384.14 810.489 461.54 818.289 L 573.893 815.76 C 583.593 813.86 593.393 811.86 603.193 809.46 C 737.893 776.96 812.393 688.96 851.093 620.76 C 898.793 536.86 919.793 434.96 908.593 341.06 C 907.693 333.16 906.493 325.46 905.193 317.96 L 983.693 256.76 C 986.593 255.06 988.893 252.46 990.193 249.36 C 991.893 245.76 991.693 241.26 989.893 237.56 Z M 406.193 652.76 C 361.993 683.76 314.593 686.56 287.793 640.06 C 258.093 649.86 226.093 646.36 212.493 619.06 C 208.193 610.46 214.693 603.36 218.793 603.16 C 368.893 595.56 505.093 478.36 559.693 354.86 C 563.693 345.76 575.993 344.66 578.393 353.36 C 621.693 511.76 570.193 705.66 406.193 652.76 Z M 706.093 326.76 C 679.693 326.76 658.293 305.36 658.293 278.96 C 658.293 252.56 679.693 231.16 706.093 231.16 C 732.493 231.16 753.893 252.56 753.893 278.96 C 753.893 305.26 732.493 326.76 706.093 326.76 Z"/>
    <g/>
    <g/>
    <g/>
    <g/>
    <g/>
    <g/>
    <g/>
    <g/>
    <g/>
    <g/>
    <g/>
    <g/>
    <g/>
    <g/>
    <g/>
  </g>
</svg>